<svg width="273" height="62" viewBox="0 0 273 62" fill="none" xmlns="http://www.w3.org/2000/svg">
<g clip-path="url(#clip0_2_25)">
<path d="M37.1212 11.3841C38.6092 8.80408 39.9162 6.41076 39.9897 5.90155C40.8215 4.306 40.4594 2.81796 41.7267 1.37517C42.3398 0.874861 43.0103 0.449395 43.724 0.107787C45.0649 -0.293928 45.7213 0.543453 45.9023 1.73728C46.0098 3.43467 45.0649 4.96798 44.2332 6.23536C41.3761 10.7168 38.2628 15.0296 34.9089 19.1525C32.5891 22.27 30.1223 25.4611 27.5083 28.6183C24.4982 32.245 21.2845 35.8378 17.8897 39.2835C15.9264 41.2412 13.9292 43.131 11.83 44.9415C14.9476 44.6133 18.5404 44.1437 20.0624 44.0023C20.102 44.0023 30.077 42.9499 30.8125 42.9103C37.4833 42.039 44.3916 41.4958 50.3608 41.7787C53.4104 41.8919 60.3754 41.5637 64.4378 43.1592C65.9259 43.776 67.1593 44.1381 67.4479 44.8566C67.595 45.2187 67.4818 45.694 67.0518 46.3107C66.7972 46.7068 66.486 46.2711 65.9202 46.82C65.411 47.1085 64.6868 46.7464 64.1776 45.4734C64.0304 45.0773 62.9102 44.3418 62.1124 44.0249C61.3021 43.7554 60.4588 43.5974 59.6059 43.5553L57.2465 43.3346C54.6043 43.1196 52.0639 43.0461 49.4838 43.08C44.5501 43.1536 39.6899 43.4818 34.9032 44.0249C29.0642 44.6756 23.2591 45.6205 17.5616 46.6728L10.0931 48.5965C8.27684 48.9926 7.19052 50.1525 4.57654 51.2445L3.44494 52.1497L2.35861 52.4044C1.27228 52.4779 0.870569 52.5119 0.689514 52.2572C0.434905 52.2572 0.474511 51.7876 0.25385 51.7537C-0.436422 51.6066 0.293456 49.3547 1.41373 48.1609C2.72072 46.7464 5.26115 45.6544 7.94303 45.1508C10.3112 43.6006 12.5344 41.8395 14.5855 39.8889C18.7608 35.6954 22.6616 31.2371 26.2635 26.5418C28.5267 23.5657 30.5806 20.318 32.5778 17.6135L37.1212 11.3841Z" fill="#B28D52"/>
<path d="M72.1731 27.8146C71.7713 27.1978 69.8476 26.7622 69.1234 27.0903C68.7952 27.2714 67.6354 27.3789 66.549 27.9956C64.8516 28.9405 62.447 30.6096 61.1796 31.3338C58.9164 32.6408 57.3322 34.491 57.4454 35.1416C57.8754 35.5037 58.7128 35.3227 59.1428 35.1077C61.1344 34.2703 63.2391 33.5065 65.0214 32.7144C66.153 32.2391 67.3411 31.8034 68.535 31.2263C70.5322 30.4286 75.2114 28.0296 76.3373 28.0296C76.8465 28.0296 77.7518 28.5954 77.7518 29.1951C77.7179 31.1132 74.9964 33.7215 74.9964 35.0341C74.9964 35.5377 75.3924 35.8659 76.4448 35.8659C76.9543 35.8456 77.4623 35.7984 77.9668 35.7244C80.6883 35.1077 84.3546 33.8743 86.2784 32.6012C87.1836 32.4598 87.2911 33.1104 86.5669 33.6196C84.3886 35.0681 76.9484 40.1829 73.4008 37.8631C72.6031 37.3539 72.3824 36.3751 72.4899 35.3227C72.6803 34.0596 73.0719 32.8351 73.6498 31.6959C73.9044 30.8246 72.5634 31.0057 72.2013 31.2263C71.6921 31.4753 70.504 31.7921 69.1913 32.3862C68.535 32.6748 67.8843 33.2575 67.2336 33.5461C65.2364 34.4174 62.5885 35.8659 60.4837 36.7372C58.9472 37.459 57.3074 37.9362 55.6235 38.1517C55.0877 38.1134 54.5548 38.0416 54.028 37.9367C53.745 37.8275 53.4954 37.6464 53.3039 37.4112C53.1124 37.176 52.9856 36.895 52.936 36.5957C52.9438 36.1081 53.0436 35.6262 53.2302 35.1756C53.8198 34.0583 54.5838 33.0422 55.4934 32.1655C56.8302 30.9655 58.2606 29.8738 59.7708 28.9009C61.6982 27.7431 63.7195 26.7494 65.8135 25.9305C67.6976 25.2006 68.8235 25.1327 69.5138 24.7989C70.4302 24.6009 71.3656 24.5041 72.3032 24.5103C72.6416 24.4429 72.9919 24.4677 73.3174 24.5822C73.6429 24.6966 73.9317 24.8966 74.1533 25.161L74.7191 25.7777C75.1887 27.5204 73.5875 29.1159 72.1448 27.8089" fill="#B28D52"/>
<path d="M90.454 26.4736C90.9282 25.8166 91.6035 25.332 92.3777 25.0931C93.6111 24.6235 94.6409 25.3137 94.556 26.6151C93.9902 28.2842 91.2178 30.8981 90.0919 32.3466C89.7297 32.7823 89.5883 33.1444 89.7297 33.184C89.8799 33.2356 90.0398 33.2527 90.1975 33.2341C90.3552 33.2155 90.5066 33.1616 90.6407 33.0765C91.2574 32.7823 92.1231 32.3126 92.3777 32.1655C93.5432 31.4809 96.5872 29.5912 99.5633 27.8485C102.426 26.2926 104.752 25.2006 106.2 25.3816C108.593 25.6758 108.52 27.3789 108.124 29.5912C107.923 30.7138 107.789 31.8474 107.722 32.9859C107.722 34.8757 109.419 35.6735 111.117 35.6735C113.216 35.6735 115.796 34.6211 117.426 33.8233V33.7837C117.507 33.7559 117.594 33.7444 117.68 33.7498C118.699 33.6762 118.732 34.3156 117.895 34.8021C114.998 36.3241 111.553 38.3553 108.972 38.1403C108.085 38.0289 107.262 37.6205 106.636 36.9815C106.01 36.3425 105.619 35.5106 105.527 34.6211C105.413 33.535 105.426 32.4394 105.566 31.3564C105.621 30.7994 105.596 30.2374 105.493 29.6874C105.386 29.3381 105.17 29.0326 104.876 28.816C104.5 28.5392 104.031 28.4214 103.569 28.4879C101.897 28.7956 100.283 29.3586 98.7825 30.157C96.8927 31.1754 95.0426 32.5899 93.5206 33.5517C92.2532 34.3495 90.1824 36.1601 88.9942 36.7768C88.3958 37.1538 87.7485 37.4469 87.0705 37.6481C86.8007 37.7813 86.4977 37.8324 86.1992 37.7952C85.8023 37.7889 85.4181 37.6544 85.104 37.4116C84.7899 37.1689 84.5627 36.8311 84.4565 36.4486C84.383 35.5094 85.0223 34.5645 85.8371 33.4782C86.2331 32.9124 86.7084 32.2051 87.0705 31.7355C87.691 30.8196 88.3576 29.9358 89.0678 29.0876C90.1145 27.526 89.8599 27.4525 90.3691 26.7282C90.4426 26.6547 90.4426 26.5868 90.4766 26.5472L90.454 26.4736Z" fill="#B28D52"/>
<path d="M137.834 25.6306C137.619 26.7622 136.057 28.0239 134.863 27.6618C134.682 27.6618 132.94 26.8641 131.672 27.1922C131.27 27.3733 130.869 27.3733 130.365 27.5543C129.316 28.0092 128.298 28.5308 127.316 29.1159C125.137 30.2475 123.287 31.6168 122.602 32.4541C122.037 33.1784 120.933 34.1911 120.605 34.6268C119.915 35.4981 120.458 35.3906 120.639 35.4246C121.658 35.6056 122.67 35.136 124.379 34.5928C126.229 33.8504 128.012 32.9512 129.709 31.9053C132.759 30.1287 132.866 30.3098 136.566 27.4808C137.374 26.8707 138.149 26.2172 138.886 25.5231C140.223 24.1147 141.472 22.6258 142.626 21.0646C144.403 18.3036 146.36 15.6217 148.21 12.9341C149.551 10.9765 151.22 8.14751 153.144 6.62552C153.466 6.484 153.824 6.44609 154.169 6.51705C154.514 6.588 154.828 6.7643 155.068 7.02156C155.939 7.45723 155.719 9.23384 154.921 10.3258C154.8 10.5658 154.628 10.7763 154.417 10.9425L153.851 11.3386C152.256 12.5381 151.86 13.1888 150.694 14.2072L150.479 14.4958C147.215 18.8467 143.95 22.6602 141.427 27.5091C140.589 29.2461 137.975 32.5107 139.729 34.9776C140.346 35.815 142.196 35.781 143.124 35.5943C144.759 35.3793 148.278 34.7286 150.417 33.6366C151.391 33.2502 152.315 32.7508 153.172 32.1486C153.863 31.86 154.01 32.1486 153.608 32.6578C152.957 33.5631 151.69 34.1798 150.021 35.3057C147.152 37.1559 142.1 39.4078 139.972 38.825C137.941 38.2592 136.849 36.1771 137.104 33.3481C137.217 32.2554 137.474 31.1825 137.868 30.157C138.107 29.2852 138.447 28.4441 138.88 27.6505C138.377 28.1597 137.794 28.6689 137.143 29.2121C134.784 31.0962 135.327 30.4116 131.191 33.0199C129.811 33.7498 127.893 35.2831 126.331 35.996C124.266 36.8277 121.001 38.3893 118.749 38.1743C116.865 37.9933 115.739 36.4317 116.611 34.7286C117.698 32.9515 119.143 31.4198 120.854 30.2306C122.416 29.2121 123.864 28.3408 125.245 27.6166C127.497 26.6448 129.799 25.793 132.142 25.0648C133.879 24.4481 135.537 23.9332 136.64 24.2671C137.33 24.5217 137.947 25.1384 137.834 25.6419" fill="#B28D52"/>
<path d="M169.728 34.8531C171.538 33.2915 180.246 25.4552 182.639 25.8003C185.032 26.1454 184.959 27.6505 184.201 29.8627C183.827 31.1588 183.56 32.4835 183.403 33.8233C183.363 36.0356 185.395 36.3241 186.996 36.2902C188.88 36.2902 191.058 35.2718 192.433 34.5475V34.5136C192.514 34.481 192.601 34.4674 192.688 34.474C193.593 34.4004 193.667 35.0398 192.942 35.4528C190.294 36.9408 187.137 38.9721 184.71 38.6099C181.841 38.1743 181.372 36.2902 181.587 33.5687C181.66 32.7709 181.553 31.5375 181.553 30.8472C181.553 29.7609 181.264 28.9631 180.393 29.2177C179.341 29.5063 177.49 30.7397 176.076 31.8261C172.992 34.2194 168.93 38.0498 167.804 38.3553C167.558 38.5535 167.249 38.6578 166.933 38.6496C166.442 38.6311 165.965 38.4806 165.552 38.2139C165.362 37.8975 165.194 37.5686 165.049 37.2294C164.794 35.3453 168.749 30.0495 168.443 28.9631C168.443 28.9631 168.409 28.635 168.115 28.635C166.984 28.635 164.273 29.8344 161.693 31.8996L157.631 35.1642L155.673 36.8333C154.728 37.5576 151.792 40.0641 150.27 38.791C150.038 38.5548 149.894 38.2467 149.861 37.9176C149.828 37.5884 149.909 37.2578 150.089 36.9805C151.464 34.1854 153.569 31.4979 155.526 28.9971C156.035 28.2332 155.747 27.9447 156.183 27.113C156.224 26.8278 156.35 26.5617 156.545 26.3491L156.833 26.0606C157.207 25.822 157.632 25.6746 158.073 25.6304C158.514 25.5862 158.96 25.6463 159.374 25.806C159.719 25.9338 160.016 26.1658 160.224 26.4699C160.432 26.774 160.54 27.1351 160.533 27.5034C159.34 30.0777 157.342 30.8076 155.566 33.2349C155.133 33.7666 154.732 34.324 154.366 34.904L154.694 34.6494L154.728 34.6154C155.962 33.7102 157.054 33.0934 158.214 32.3522C160.822 30.5756 163.436 28.9065 166.52 27.1299C167.787 26.4057 170.508 24.4084 172.178 24.9177C172.545 25.1327 172.579 25.2402 172.687 25.6419C173.156 26.4057 171.555 29.7383 170.729 31.5149C170.254 32.4597 169.134 34.9096 169.598 34.9096C169.649 34.9113 169.699 34.8996 169.745 34.8757" fill="#B28D52"/>
<path d="M210.324 27.8146C209.922 27.1978 208.004 26.7622 207.274 27.0903C206.951 27.2714 205.786 27.3789 204.7 27.9956C203.002 28.9405 200.603 30.6096 199.33 31.3338C197.067 32.6408 195.488 34.491 195.596 35.1416C196.032 35.5037 196.863 35.3227 197.293 35.1077C199.291 34.2703 201.395 33.5065 203.172 32.7144C204.304 32.2391 205.492 31.8034 206.691 31.2263C208.683 30.4286 213.362 28.0296 214.488 28.0296C214.997 28.0296 215.902 28.5954 215.902 29.1951C215.868 31.1132 213.147 33.7215 213.147 35.0341C213.147 35.5377 213.543 35.8659 214.595 35.8659C215.107 35.8457 215.617 35.7984 216.123 35.7244C218.845 35.1077 222.505 33.8743 224.429 32.6012C225.334 32.4598 225.447 33.1104 224.717 33.6196C222.545 35.0681 215.099 40.1829 211.551 37.8631C210.754 37.3539 210.533 36.3751 210.646 35.3227C210.831 34.0583 211.223 32.8331 211.806 31.6959C212.061 30.8246 210.714 31.0057 210.352 31.2263C209.848 31.4753 208.655 31.7921 207.342 32.3862C206.691 32.6748 206.035 33.2575 205.384 33.5461C203.387 34.4174 200.739 35.8659 198.634 36.7372C197.098 37.4597 195.458 37.937 193.774 38.1517C193.238 38.1134 192.705 38.0416 192.179 37.9367C191.896 37.8282 191.646 37.6471 191.456 37.4117C191.265 37.1764 191.14 36.8949 191.092 36.5957C191.095 36.1081 191.193 35.6257 191.381 35.1756C191.97 34.0583 192.734 33.0422 193.644 32.1655C194.982 30.9642 196.414 29.8725 197.927 28.9009C199.847 27.7439 201.861 26.7503 203.947 25.9305C205.831 25.2006 206.957 25.1327 207.647 24.7989C208.564 24.6011 209.499 24.5044 210.437 24.5103C210.776 24.443 211.127 24.4679 211.454 24.5823C211.78 24.6967 212.07 24.8966 212.293 25.161L212.858 25.7777C213.328 27.5204 211.727 29.1159 210.284 27.8089" fill="#B28D52"/>
<path d="M227.886 32.1316C227.96 32.8558 228.175 33.9478 227.846 34.491C226.863 35.8567 225.704 37.0874 224.401 38.1517C223.207 38.8759 222.137 38.3723 222.081 37.0993C222.321 35.9596 222.803 34.8848 223.495 33.9478C226.471 29.6308 230.97 26.6887 235.943 24.697C238.048 23.9332 241.131 22.9544 242.942 23.6447C243.015 23.6447 243.089 23.6786 243.162 23.6786C243.64 23.8203 244.058 24.1119 244.356 24.5103C244.619 24.7771 244.786 25.1232 244.832 25.4948C244.832 26.3662 243.378 28.1428 242.438 28.3238C242.204 28.3773 241.96 28.3755 241.726 28.3186C241.493 28.2616 241.275 28.1511 241.092 27.9956C240.877 27.7806 241.165 26.8018 240.475 26.8018C239.609 26.7622 238.879 26.2926 238.336 26.236C237.911 26.2741 237.488 26.3346 237.069 26.4171C236.452 26.5246 235.869 26.5246 235.434 26.5981C234.26 27.0671 233.14 27.6628 232.095 28.3747C230.971 29.0057 229.943 29.7966 229.046 30.7228C228.607 31.1494 228.218 31.6238 227.886 32.1373" fill="#B28D52"/>
<path d="M258.609 7.64393C259.627 6.95366 260.68 7.46288 260.968 9.02448C260.877 9.44009 260.73 9.84162 260.532 10.2183C260.532 11.4178 259.339 12.3627 258.575 13.234C258.066 13.7998 258.009 14.3656 257.375 15.1917C257.013 15.8423 256.651 16.5326 256.215 17.2229C253.896 20.8836 251.174 24.8781 249.324 27.775L248 30.8982L247.859 31.1867C250.158 29.482 252.622 28.0112 255.214 26.7962C256.991 25.8909 258.948 25.4213 260.001 24.9856C261.517 24.4202 263.087 24.0071 264.685 23.7522C265.627 23.5858 266.597 23.7392 267.441 24.1878C268.889 24.7536 269.036 25.7098 268.091 26.7622C267.552 27.3866 266.899 27.9031 266.168 28.2842C265.151 28.8834 264.096 29.4163 263.011 29.8798L260.255 31.1132C259.565 31.2942 258.914 32.0581 258.264 32.3862C258.01 32.4768 257.787 32.6367 257.62 32.8477C257.453 33.0588 257.349 33.3125 257.319 33.5801C257.245 33.9422 257.681 34.2364 257.884 34.5646C258.126 34.8748 258.393 35.1644 258.682 35.4302C259.304 35.9468 259.986 36.3857 260.713 36.7372C262.637 37.535 265.5 39.0966 267.933 40.4375C269.435 41.2 270.824 42.1652 272.063 43.3061C272.358 43.6286 272.431 43.8719 272.176 44.1718L271.922 44.4999C271.486 45.0657 269.71 43.6682 269.127 42.6498L267.531 41.3088C266.528 40.7719 265.486 40.3104 264.414 39.9283C262.926 39.3625 261.183 38.842 260.131 38.2988C259.078 37.7556 256.651 37.0258 255.814 36.194C255.089 35.5773 254.145 35.1756 253.856 34.4514C253.675 33.9422 253.675 34.1968 253.709 33.6197C253.782 31.8374 257.409 30.4965 258.716 29.9193C259.742 29.4156 260.736 28.8487 261.692 28.222C262.49 27.7184 262.745 27.8599 263.503 26.5925C262.344 26.4564 261.169 26.5683 260.057 26.9206C258.955 27.2155 257.877 27.5938 256.832 28.0522C253.748 29.5007 251.174 31.7865 248.956 33.7441C248.339 34.3099 247.259 35.3057 246.744 35.7753C245.946 36.5392 246.235 36.6127 245.805 37.2973C245.687 37.4972 245.553 37.6865 245.403 37.8631C245.13 38.1011 244.807 38.2751 244.458 38.3724C243.372 38.627 242.789 38.4402 242.195 37.716C241.544 36.3751 242.557 35.0681 243.468 33.5801C243.883 32.9212 244.342 32.2917 244.843 31.696C244.925 31.5223 245.036 31.3636 245.171 31.2264C245.279 30.3154 246.586 29.6647 246.914 28.8274L246.987 28.7199C248.074 26.7622 249.381 24.5103 250.648 22.2641C252.345 19.3616 253.517 17.0022 254.569 14.7164C254.965 13.8451 255.254 13.6301 255.802 12.4532C256.091 11.6215 256.312 10.7106 256.6 9.80528C256.962 8.60579 257.732 7.70051 258.592 7.62696" fill="#B28D52"/>
<path d="M96.0101 59.6915H91.3762L90.4879 61.8416H88.1229L92.57 51.8609H94.8332L99.3143 61.8416H96.8927L96.0101 59.6915ZM95.2802 57.9376L93.696 54.1184L92.1174 57.9376H95.2802Z" fill="#B3B3B3"/>
<path d="M112.656 60.8175C112.235 60.3633 111.912 59.8277 111.707 59.2438C111.502 58.6599 111.418 58.0401 111.462 57.4227V51.8326H113.77V57.3378C113.77 59.1258 114.512 60.0141 115.994 60.0141C116.301 60.0349 116.608 59.9879 116.895 59.8764C117.181 59.7649 117.44 59.5917 117.652 59.3691C118.077 58.7815 118.278 58.0608 118.218 57.3378V51.8326H120.481V57.4227C120.455 58.32 120.174 59.1913 119.67 59.9344C119.166 60.6775 118.461 61.2615 117.637 61.6179C116.814 61.9743 115.905 62.0883 115.019 61.9465C114.132 61.8047 113.305 61.4131 112.633 60.8175H112.656Z" fill="#B3B3B3"/>
<path d="M136.204 61.338C135.402 60.915 134.733 60.2786 134.269 59.4992C133.806 58.6895 133.562 57.7728 133.562 56.8399C133.562 55.907 133.806 54.9903 134.269 54.1807C134.733 53.4012 135.402 52.7649 136.204 52.3419C137.059 51.8933 138.012 51.6657 138.977 51.6799C139.782 51.6686 140.581 51.8227 141.325 52.1325C142.006 52.4256 142.609 52.8754 143.084 53.4452L141.63 54.8144C141.327 54.4437 140.945 54.1463 140.511 53.9444C140.076 53.7426 139.602 53.6415 139.124 53.6488C138.546 53.6367 137.974 53.7751 137.466 54.0506C136.991 54.3148 136.599 54.7067 136.334 55.1822C136.067 55.6917 135.927 56.2587 135.927 56.8343C135.927 57.4099 136.067 57.9768 136.334 58.4864C136.599 58.9618 136.991 59.3538 137.466 59.618C137.975 59.8908 138.546 60.0291 139.124 60.0197C139.604 60.0262 140.079 59.9231 140.514 59.7182C140.948 59.5133 141.33 59.212 141.63 58.8372L143.113 60.2064C142.641 60.786 142.035 61.2423 141.347 61.536C140.602 61.8448 139.801 61.9988 138.994 61.9887C138.024 62.0104 137.064 61.7865 136.204 61.338Z" fill="#B3B3B3"/>
<path d="M158.038 53.7337H154.847V51.8496H163.544V53.7337H160.302V61.8416H158.038V53.7337Z" fill="#B3B3B3"/>
<path d="M176.144 51.8496H178.452V61.8416H176.144V51.8496Z" fill="#B3B3B3"/>
<path d="M194.278 61.3324C193.464 60.8979 192.783 60.2505 192.308 59.4592C191.834 58.668 191.583 57.7626 191.583 56.8399C191.583 55.9172 191.834 55.0119 192.308 54.2206C192.783 53.4294 193.464 52.7819 194.278 52.3475C195.146 51.9107 196.104 51.6832 197.075 51.6832C198.047 51.6832 199.005 51.9107 199.873 52.3475C200.687 52.7819 201.368 53.4294 201.843 54.2206C202.317 55.0119 202.568 55.9172 202.568 56.8399C202.568 57.7626 202.317 58.668 201.843 59.4592C201.368 60.2505 200.687 60.8979 199.873 61.3324C199.005 61.7692 198.047 61.9967 197.075 61.9967C196.104 61.9967 195.146 61.7692 194.278 61.3324ZM198.674 59.635C199.149 59.3703 199.541 58.9784 199.805 58.5034C200.073 57.9938 200.213 57.4268 200.213 56.8512C200.213 56.2757 200.073 55.7087 199.805 55.1991C199.541 54.7241 199.149 54.3322 198.674 54.0675C198.183 53.806 197.635 53.6692 197.078 53.6692C196.522 53.6692 195.974 53.806 195.483 54.0675C195.008 54.3322 194.616 54.7241 194.351 55.1991C194.084 55.7087 193.944 56.2757 193.944 56.8512C193.944 57.4268 194.084 57.9938 194.351 58.5034C194.616 58.9784 195.008 59.3703 195.483 59.635C195.974 59.8965 196.522 60.0333 197.078 60.0333C197.635 60.0333 198.183 59.8965 198.674 59.635Z" fill="#B3B3B3"/>
<path d="M224.836 51.8496V61.8416H222.941L217.962 55.7819V61.8416H215.699V51.8496H217.611L222.539 57.9093V51.8496H224.836Z" fill="#B3B3B3"/>
<path d="M239.598 61.6775C238.96 61.5157 238.359 61.2334 237.827 60.8458L238.608 59.1088C239.074 59.4396 239.589 59.6937 240.135 59.8613C240.705 60.0505 241.301 60.1479 241.901 60.1498C242.403 60.1829 242.905 60.0813 243.355 59.8556C243.497 59.7819 243.615 59.6706 243.698 59.5339C243.781 59.3972 243.825 59.2403 243.824 59.0805C243.826 58.9669 243.803 58.8543 243.754 58.7514C243.706 58.6485 243.636 58.5578 243.547 58.4864C243.336 58.3157 243.094 58.187 242.834 58.1073C242.546 58.0111 242.155 57.9093 241.657 57.7961C241.024 57.6446 240.401 57.4557 239.79 57.2303C239.308 57.0507 238.879 56.7507 238.546 56.359C238.178 55.911 237.993 55.3417 238.025 54.7635C238.02 54.2039 238.184 53.6559 238.495 53.1905C238.847 52.6829 239.341 52.2895 239.915 52.059C240.649 51.763 241.437 51.6224 242.229 51.6459C242.858 51.6438 243.485 51.7198 244.096 51.8722C244.659 52.006 245.197 52.2275 245.692 52.5286L244.979 54.2825C244.143 53.783 243.191 53.5118 242.218 53.4961C241.718 53.4612 241.219 53.5713 240.78 53.8129C240.638 53.8989 240.521 54.0201 240.44 54.1649C240.358 54.3096 240.316 54.473 240.316 54.639C240.318 54.8059 240.37 54.9684 240.466 55.1049C240.562 55.2413 240.697 55.3453 240.854 55.4028C241.38 55.6195 241.926 55.7844 242.483 55.8951C243.117 56.0396 243.742 56.219 244.356 56.4326C244.836 56.6123 245.263 56.9077 245.601 57.2926C245.966 57.7353 246.151 58.2984 246.122 58.8711C246.126 59.4279 245.96 59.9728 245.646 60.4327C245.286 60.9398 244.787 61.3326 244.209 61.5643C243.472 61.8596 242.683 62.0002 241.889 61.9774C241.115 61.9871 240.344 61.8861 239.598 61.6775Z" fill="#B3B3B3"/>
</g>
<defs>
<clipPath id="clip0_2_25">
<rect width="272.369" height="62" fill="white"/>
</clipPath>
</defs>
</svg>
